#
# This is the pyramid
#

v -25 -15.717360496521 25
v 25 -15.717360496521 25
v 25 -15.717360496521 -25
v -25 -15.717360496521 -25
v 0 64.28263854980469 0
# 5 vertices

vn 0 -1 0
vn 0.95448607206345 0.29825541377068 0
vn 0 0.29825541377068 -0.95448607206345
vn -0.95448607206345 0.29825541377068 0
vn 0 0.29825541377068 0.95448607206345
# 5 normals

vt 0 0 0
vt 1 0 0
vt 1 1 0
vt 0 1 0
vt 0.5 1 0
# 5 texture coordinates

o Pyramid
usemtl default
f 4/1/1 3/2/1 2/3/1 1/4/1
f 2/1/2 3/2/2 5/5/2
f 3/1/3 4/2/3 5/5/3
f 4/1/4 1/2/4 5/5/4
f 1/1/5 2/2/5 5/5/5

# 0 vertex

# 0 normal

# 0 texture coordinate

o Pyramid_1
usemtl default
f 4/1/1 3/2/1 2/3/1 1/4/1
f 2/1/2 3/2/2 5/5/2
f 3/1/3 4/2/3 5/5/3
f 4/1/4 1/2/4 5/5/4
f 1/1/5 2/2/5 5/5/5

